<svg id="Layer_1" data-name="Layer 1" xmlns="http://www.w3.org/2000/svg" xmlns:xlink="http://www.w3.org/1999/xlink" viewBox="0 0 161.14 91.59"><defs><style>.cls-1{fill:url(#linear-gradient);}.cls-2{fill:url(#linear-gradient-2);}.cls-3{fill:url(#linear-gradient-3);}.cls-4{fill:none;stroke:#f9efde;stroke-linecap:round;stroke-miterlimit:10;stroke-width:2px;}.cls-5{fill:#f9efde;}</style><linearGradient id="linear-gradient" x1="227.33" y1="341.5" x2="247.22" y2="341.5" gradientUnits="userSpaceOnUse"><stop offset="0.31" stop-color="#def2fc"/><stop offset="0.38" stop-color="#d6eaf4"/><stop offset="0.5" stop-color="#c0d3dc"/><stop offset="0.64" stop-color="#9caeb7"/><stop offset="0.8" stop-color="#697a82"/><stop offset="0.98" stop-color="#2a3940"/><stop offset="1" stop-color="#223138"/></linearGradient><linearGradient id="linear-gradient-2" x1="224.11" y1="333.07" x2="259.96" y2="333.07" gradientTransform="matrix(1, 0, 0, -1, 0, 610.96)" gradientUnits="userSpaceOnUse"><stop offset="0" stop-color="#def2fc"/><stop offset="0.29" stop-color="#a0b2bb"/><stop offset="0.63" stop-color="#5c6d75"/><stop offset="0.88" stop-color="#324249"/><stop offset="1" stop-color="#223138"/></linearGradient><linearGradient id="linear-gradient-3" x1="213.84" y1="358.2" x2="326.53" y2="266.95" gradientUnits="userSpaceOnUse"><stop offset="0" stop-color="#def2fc"/><stop offset="0.05" stop-color="#b8cbd5"/><stop offset="0.12" stop-color="#91a2ab"/><stop offset="0.19" stop-color="#6e7f88"/><stop offset="0.26" stop-color="#53636b"/><stop offset="0.34" stop-color="#3d4d54"/><stop offset="0.43" stop-color="#2e3d44"/><stop offset="0.52" stop-color="#25343b"/><stop offset="0.66" stop-color="#223138"/></linearGradient></defs><path class="cls-1" d="M227.33,332.78s12.89,19.22,18.23,20c0,0-.12-20.34,1.66-22.56Z" transform="translate(-180.1 -267.48)"/><path class="cls-2" d="M224.11,284.37s25.26-16.11,30.59-16.89c0,0,6,19,5.19,20.82Z" transform="translate(-180.1 -267.48)"/><path class="cls-3" d="M290.81,300.81c-8.66-8.85-17.39-11.71-26.48-15-6.73-2.46-15.83-2.93-18.66-3.34-6.23-.88-34.82,1.43-46.23,4.78-6.38,1.88-12.59,5.08-18.22,15a17.46,17.46,0,0,0-1.11,6.67c.49,9.44,1.48,10.26,8.45,17,4.32,4.18,15.52,9.62,17.44,10.52,12.95,6.07,36.42,6,38.67,5.78,3.77-.41,33-3.61,38.37-6.08s10.22-7.55,14.93-11c3-2.15,22.4,4.71,20.62,14.43a59.67,59.67,0,0,0,.12,19.49s12.87-16.4,13-20.29c.11-5.08-4.78-13-3.89-17.55s3.55-8.67,8.29-12.23,5.93-20.44,4.74-24.3S329,304,322.44,302.78s-17.33,9.18-23,7.7C296.93,309.81,295.08,305.17,290.81,300.81Z" transform="translate(-180.1 -267.48)"/><path class="cls-4" d="M214.78,299.19s9.48,19.25-2.37,32.66" transform="translate(-180.1 -267.48)"/><circle class="cls-5" cx="13.52" cy="34.4" r="2.51"/></svg>