<svg xmlns="http://www.w3.org/2000/svg" xmlns:xlink="http://www.w3.org/1999/xlink" viewBox="0 0 341.63 341.5"><defs><style>.cls-1{fill:url(#linear-gradient);}.cls-2{fill:none;stroke:#f9efde;stroke-miterlimit:10;stroke-width:2px;}</style><linearGradient id="linear-gradient" x1="142.87" y1="484.61" x2="435.11" y2="247.96" gradientUnits="userSpaceOnUse"><stop offset="0" stop-color="#def2fc"/><stop offset="0.73" stop-color="#223138"/></linearGradient></defs><g id="Layer_1" data-name="Layer 1"><path class="cls-1" d="M256,304.24l23.14-113.7a2.93,2.93,0,0,0,.05-.29c.23-1.6,3.83-20.86,10.38-16.5,6.31,4.2,22.6,103.23,26.25,128.59a4.48,4.48,0,0,0,6,3.52l103.94-40.59s20.8-9.36,20.8-2.08c0,6.57-93.82,82.79-112.21,97.67a4.47,4.47,0,0,0-1,5.88l51.86,81.11c0,.07.09.14.13.22,1.16,2.07,28.8,50.65,2.25,33.17C375.44,473.16,307.17,421.08,292,407a4.46,4.46,0,0,0-6.2.13L196,497.3l-.25.23c-2.21,1.91-31.91,27.38-29.91,12.36,2.08-15.6,81.87-142.13,80.79-147.21-1.16-5.48-130.25-46.91-130.25-46.91s-29.12-9.25,5.78-9.94c26.86-.54,110.64,1.51,129.37,2A4.46,4.46,0,0,0,256,304.24Z" transform="translate(-105.01 -173.11)"/></g><g id="Layer_2" data-name="Layer 2"><path class="cls-2" d="M229.27,316.9s4.2,7.44,8.72,0" transform="translate(-105.01 -173.11)"/><path class="cls-2" d="M342.27,305.78s4.2,7.44,8.73,0" transform="translate(-105.01 -173.11)"/><path class="cls-2" d="M271.46,281s4.2,7.44,8.73,0" transform="translate(-105.01 -173.11)"/><path class="cls-2" d="M239.69,384.55s4.2,7.44,8.72,0" transform="translate(-105.01 -173.11)"/><path class="cls-2" d="M336,405.19s4.21,7.44,8.73,0" transform="translate(-105.01 -173.11)"/><path class="cls-2" d="M217.07,438.8s2.11,3.71,4.37,0" transform="translate(-105.01 -173.11)"/><path class="cls-2" d="M348.9,442.33s2.78,4.91,5.77,0" transform="translate(-105.01 -173.11)"/><path class="cls-2" d="M152.53,322.07s2.81,5,5.82,0" transform="translate(-105.01 -173.11)"/><path class="cls-2" d="M297.64,343.86s6.14,10.88,12.76,0" transform="translate(-105.01 -173.11)"/><path class="cls-2" d="M288.59,227.76s4.2,7.44,8.73,0" transform="translate(-105.01 -173.11)"/><path class="cls-2" d="M398.26,281s4.2,7.44,8.72,0" transform="translate(-105.01 -173.11)"/></g></svg>