<svg id="Layer_1" data-name="Layer 1" xmlns="http://www.w3.org/2000/svg" viewBox="0 0 817 822"><defs><style>.cls-1{fill:none;stroke:#faefdd;stroke-miterlimit:10;stroke-width:10px;}.cls-2{fill:#f24729;}.cls-3{fill:#faefdd;}</style></defs><g id="Layer_1-2" data-name="Layer 1"><line class="cls-1" y1="414" x2="60" y2="414"/><line class="cls-1" x1="54.98" y1="618.18" x2="106.94" y2="588.18"/><line class="cls-1" x1="204.68" y1="767.52" x2="234.68" y2="715.56"/><line class="cls-1" x1="415" y1="822" x2="415" y2="762"/><line class="cls-1" x1="613.18" y1="767.02" x2="583.18" y2="715.06"/><line class="cls-1" x1="762.52" y1="617.32" x2="710.56" y2="587.32"/><line class="cls-1" x1="817" y1="413" x2="757" y2="413"/><line class="cls-1" x1="762.02" y1="208.82" x2="710.06" y2="238.82"/><line class="cls-1" x1="612.32" y1="59.48" x2="582.32" y2="111.44"/><line class="cls-1" x1="54.48" y1="209.68" x2="106.44" y2="239.68"/></g><g id="Layer_2" data-name="Layer 2"><path class="cls-2" d="M410,403,238.18,108.45A341,341,0,0,1,410,62h5Z"/><path class="cls-3" d="M414.83,427.67A22.17,22.17,0,1,1,437,405.5h0A22.19,22.19,0,0,1,414.83,427.67Z"/><line class="cls-1" x1="414" x2="414" y2="405"/><line class="cls-1" x1="204" y1="60" x2="416" y2="405"/></g></svg>