<svg xmlns="http://www.w3.org/2000/svg" viewBox="0 0 901 970"><defs><style>.cls-1{fill:#faefdd;}.cls-2{fill:#223138;}.cls-3{fill:none;stroke:#223138;stroke-miterlimit:10;stroke-width:10px;}</style></defs><g id="Layer_1" data-name="Layer 1"><path class="cls-1" d="M966.5,986A445.61,445.61,0,0,1,793.09,130a445.62,445.62,0,0,1,346.82,821A442.72,442.72,0,0,1,966.5,986Z" transform="translate(-516 -21)"/><path class="cls-2" d="M966.5,100A439.05,439.05,0,1,1,795,134.61,437.87,437.87,0,0,1,966.5,100m0-10C717.7,90,516,291.7,516,540.5S717.7,991,966.5,991,1417,789.3,1417,540.5,1215.3,90,966.5,90Z" transform="translate(-516 -21)"/><rect class="cls-1" x="433" y="38" width="36" height="36"/><path class="cls-2" d="M980,64V90H954V64h26m10-10H944v46h46V54Z" transform="translate(-516 -21)"/><rect class="cls-1" x="409" y="5" width="85" height="36" rx="8.07"/><path class="cls-2" d="M1001.93,31a3.08,3.08,0,0,1,3.07,3.07V53.93a3.08,3.08,0,0,1-3.07,3.07H933.07A3.08,3.08,0,0,1,930,53.93V34.07A3.08,3.08,0,0,1,933.07,31h68.86m0-10H933.07A13.07,13.07,0,0,0,920,34.07V53.93A13.07,13.07,0,0,0,933.07,67h68.86A13.07,13.07,0,0,0,1015,53.93V34.07A13.07,13.07,0,0,0,1001.93,21Z" transform="translate(-516 -21)"/><line class="cls-3" x1="36" y1="520" x2="96" y2="520"/><line class="cls-3" x1="90.98" y1="724.18" x2="142.94" y2="694.18"/><line class="cls-3" x1="240.68" y1="873.52" x2="270.68" y2="821.56"/><line class="cls-3" x1="451" y1="928" x2="451" y2="868"/><line class="cls-3" x1="649.18" y1="873.02" x2="619.18" y2="821.06"/><line class="cls-3" x1="798.52" y1="723.32" x2="746.56" y2="693.32"/><line class="cls-3" x1="853" y1="519" x2="793" y2="519"/><line class="cls-3" x1="798.02" y1="314.82" x2="746.06" y2="344.82"/><line class="cls-3" x1="648.32" y1="165.48" x2="618.32" y2="217.44"/><line class="cls-3" x1="239.82" y1="165.98" x2="269.82" y2="217.94"/><line class="cls-3" x1="90.48" y1="315.68" x2="142.44" y2="345.68"/></g><g id="Layer_2" data-name="Layer 2"><circle class="cls-1" cx="451" cy="511" r="116"/><path class="cls-2" d="M966.83,554.67A22.17,22.17,0,1,1,989,532.5,22.19,22.19,0,0,1,966.83,554.67Z" transform="translate(-516 -21)"/><path class="cls-1" d="M966.83,515.33a17.17,17.17,0,1,1-17.16,17.17,17.19,17.19,0,0,1,17.16-17.17m0-10A27.17,27.17,0,1,0,994,532.5a27.17,27.17,0,0,0-27.17-27.17Z" transform="translate(-516 -21)"/><line class="cls-3" x1="452" y1="106" x2="452" y2="511"/></g></svg>