<svg xmlns="http://www.w3.org/2000/svg" viewBox="0 0 817 822"><defs><style>.cls-1{fill:none;stroke:#223138;stroke-miterlimit:10;stroke-width:10px;}.cls-2{fill:#f24729;}.cls-3{fill:#223138;}</style></defs><g id="Layer_1" data-name="Layer 1"><line class="cls-1" y1="414" x2="60" y2="414"/><line class="cls-1" x1="204.68" y1="767.52" x2="234.68" y2="715.56"/><line class="cls-1" x1="415" y1="822" x2="415" y2="762"/><line class="cls-1" x1="613.18" y1="767.02" x2="583.18" y2="715.06"/><line class="cls-1" x1="762.52" y1="617.32" x2="710.56" y2="587.32"/><line class="cls-1" x1="817" y1="413" x2="757" y2="413"/><line class="cls-1" x1="762.02" y1="208.82" x2="710.06" y2="238.82"/><line class="cls-1" x1="612.32" y1="59.48" x2="582.32" y2="111.44"/><line class="cls-1" x1="203.82" y1="59.98" x2="233.82" y2="111.94"/><line class="cls-1" x1="54.48" y1="209.68" x2="106.44" y2="239.68"/></g><g id="Layer_2" data-name="Layer 2"><path class="cls-2" d="M962,537,666.67,707.47A341,341,0,0,1,621,537c0-187.07,153.93-341,341-341,1.65,0,3.31,0,5,0Z" transform="translate(-552 -127)"/><path class="cls-3" d="M966.83,554.67A22.17,22.17,0,1,1,989,532.5,22.19,22.19,0,0,1,966.83,554.67Z" transform="translate(-552 -127)"/><path class="cls-3" d="M966.83,515.33a17.17,17.17,0,1,1-17.16,17.17,17.19,17.19,0,0,1,17.16-17.17m0-10A27.17,27.17,0,1,0,994,532.5a27.17,27.17,0,0,0-27.17-27.17Z" transform="translate(-552 -127)"/><line class="cls-1" x1="414" x2="414" y2="405"/><line class="cls-1" x1="55" y1="618" x2="416" y2="405"/></g></svg>